<svg width="77" height="48" viewBox="0 0 77 48" fill="none" xmlns="http://www.w3.org/2000/svg">
<path d="M31.2366 32.08L39.3966 12H31.6366V8H44.1166V11.92L35.9566 32H44.1166V36H31.2366V32.08ZM52.9688 36.4C50.8088 36.4 49.1554 35.7867 48.0088 34.56C46.8621 33.3333 46.2887 31.6 46.2887 29.36V14.64C46.2887 12.4 46.8621 10.6667 48.0088 9.44C49.1554 8.21333 50.8088 7.6 52.9688 7.6C55.1288 7.6 56.7821 8.21333 57.9288 9.44C59.0754 10.6667 59.6488 12.4 59.6488 14.64V29.36C59.6488 31.6 59.0754 33.3333 57.9288 34.56C56.7821 35.7867 55.1288 36.4 52.9688 36.4ZM52.9688 32.4C54.4888 32.4 55.2487 31.48 55.2487 29.64V14.36C55.2487 12.52 54.4888 11.6 52.9688 11.6C51.4488 11.6 50.6888 12.52 50.6888 14.36V29.64C50.6888 31.48 51.4488 32.4 52.9688 32.4ZM68.9844 36.4C66.8244 36.4 65.171 35.7867 64.0244 34.56C62.8777 33.3333 62.3044 31.6 62.3044 29.36V14.64C62.3044 12.4 62.8777 10.6667 64.0244 9.44C65.171 8.21333 66.8244 7.6 68.9844 7.6C71.1444 7.6 72.7977 8.21333 73.9444 9.44C75.091 10.6667 75.6644 12.4 75.6644 14.64V29.36C75.6644 31.6 75.091 33.3333 73.9444 34.56C72.7977 35.7867 71.1444 36.4 68.9844 36.4ZM68.9844 32.4C70.5044 32.4 71.2644 31.48 71.2644 29.64V14.36C71.2644 12.52 70.5044 11.6 68.9844 11.6C67.4644 11.6 66.7044 12.52 66.7044 14.36V29.64C66.7044 31.48 67.4644 32.4 68.9844 32.4Z" fill="#678F3F"/>
<path d="M3.42832 13.5H7.15332L10.0033 31H7.25332L6.75332 27.525V27.575H3.62832L3.12832 31H0.57832L3.42832 13.5ZM6.42832 25.2L5.20332 16.55H5.15332L3.95332 25.2H6.42832ZM11.3375 13.5H15.4125C16.8292 13.5 17.8625 13.8333 18.5125 14.5C19.1625 15.15 19.4875 16.1583 19.4875 17.525V18.6C19.4875 20.4167 18.8875 21.5667 17.6875 22.05V22.1C18.3542 22.3 18.8208 22.7083 19.0875 23.325C19.3708 23.9417 19.5125 24.7667 19.5125 25.8V28.875C19.5125 29.375 19.5292 29.7833 19.5625 30.1C19.5958 30.4 19.6792 30.7 19.8125 31H17.0125C16.9125 30.7167 16.8458 30.45 16.8125 30.2C16.7792 29.95 16.7625 29.5 16.7625 28.85V25.65C16.7625 24.85 16.6292 24.2917 16.3625 23.975C16.1125 23.6583 15.6708 23.5 15.0375 23.5H14.0875V31H11.3375V13.5ZM15.0875 21C15.6375 21 16.0458 20.8583 16.3125 20.575C16.5958 20.2917 16.7375 19.8167 16.7375 19.15V17.8C16.7375 17.1667 16.6208 16.7083 16.3875 16.425C16.1708 16.1417 15.8208 16 15.3375 16H14.0875V21H15.0875ZM25.2955 31.25C23.9788 31.25 22.9705 30.875 22.2705 30.125C21.5872 29.375 21.2455 28.3167 21.2455 26.95V17.55C21.2455 16.1833 21.5872 15.125 22.2705 14.375C22.9705 13.625 23.9788 13.25 25.2955 13.25C26.6122 13.25 27.6122 13.625 28.2955 14.375C28.9955 15.125 29.3455 16.1833 29.3455 17.55V19.4H26.7455V17.375C26.7455 16.2917 26.2872 15.75 25.3705 15.75C24.4538 15.75 23.9955 16.2917 23.9955 17.375V27.15C23.9955 28.2167 24.4538 28.75 25.3705 28.75C26.2872 28.75 26.7455 28.2167 26.7455 27.15V24.475H29.3455V26.95C29.3455 28.3167 28.9955 29.375 28.2955 30.125C27.6122 30.875 26.6122 31.25 25.2955 31.25ZM33.1158 13.5H36.8408L39.6908 31H36.9408L36.4408 27.525V27.575H33.3158L32.8158 31H30.2658L33.1158 13.5ZM36.1158 25.2L34.8908 16.55H34.8408L33.6408 25.2H36.1158ZM41.025 13.5H45.225C46.5917 13.5 47.6167 13.8667 48.3 14.6C48.9833 15.3333 49.325 16.4083 49.325 17.825V26.675C49.325 28.0917 48.9833 29.1667 48.3 29.9C47.6167 30.6333 46.5917 31 45.225 31H41.025V13.5ZM45.175 28.5C45.625 28.5 45.9667 28.3667 46.2 28.1C46.45 27.8333 46.575 27.4 46.575 26.8V17.7C46.575 17.1 46.45 16.6667 46.2 16.4C45.9667 16.1333 45.625 16 45.175 16H43.775V28.5H45.175ZM51.1813 13.5H53.9313V31H51.1813V13.5ZM58.1158 13.5H61.8408L64.6908 31H61.9408L61.4408 27.525V27.575H58.3158L57.8158 31H55.2658L58.1158 13.5ZM61.1158 25.2L59.8908 16.55H59.8408L58.6408 25.2H61.1158Z" fill="black"/>
</svg>
